<svg xmlns="http://www.w3.org/2000/svg" viewBox="0 0 926.6 289.1" xmlns:v="https://vecta.io/nano"><circle cx="129.1" cy="128.7" r="124.9" fill="#33ad73"/><path d="M166.8 100.6L129.1 142 89.8 98.9c-9.2-10.4-8.3-26.3 2.1-35.5s26.3-8.3 35.5 2.1c.6.7 1.1 1.3 1.6 2 8.1-11.3 23.8-14 35.1-5.9s14 23.8 5.9 35.1c-.5.7-1.1 1.5-1.7 2.1l-1.5 1.8zM46.9 116.1c-6.9 45.4 24.3 87.8 69.7 94.7h.3c6.9-45.4-24.3-87.8-69.7-94.7h-.3zm165.3 12.5c0-4.2-.3-8.4-1-12.5-45.4 6.7-76.8 49-70 94.5v.3c40.8-6.1 71-41.1 71-82.3z" fill="#fff"/><path d="M309.5 52.3l26.9-3.3v144.7h-26.9V52.3zm168.1 38.1c11.7 0 21 3.7 27.9 11.1 6.8 7.4 10.3 18.6 10.3 33.4v58.7h-25.7v-52c0-10.3-1.6-17.7-4.7-22.3-3.1-4.5-8-6.8-14.6-6.8-14.1 0-21.2 9.8-21.2 29.3v51.8h-25.7v-52c0-10.6-1.6-18.2-4.9-22.8s-8.4-6.9-15.4-7c-13.3 0-19.9 9.9-19.9 29.9v51.8H358V93.8l23.7-3.1v17.6c6.4-11.9 16.8-17.8 31.3-17.8 14.7 0 25.1 6 31.3 18 6.8-12.1 17.9-18.1 33.3-18.1zm114.8 0c13.3 0 24.2 4.8 32.6 14.5 8.6 9.8 12.9 22.5 12.8 38 0 15.7-4.3 28.4-12.8 38.2-8.4 9.7-19.3 14.5-32.6 14.5-12.9 0-23-5-30.5-15.1v58.2l-25.7 3.3V93.8l23.7-3.1v18c7.2-12.2 18.1-18.3 32.5-18.3zm-23.6 75c8.1 10.1 22.8 11.6 32.9 3.5a19.33 19.33 0 0 0 3.5-3.5c4.6-6 6.9-13.5 6.9-22.6 0-9-2.3-16.5-6.9-22.4-8.1-10.1-22.9-11.6-32.9-3.5a19.33 19.33 0 0 0-3.5 3.5c-4.6 5.8-6.9 13.3-6.9 22.4s2.3 16.7 6.9 22.6h0zm182.9 27.9c-4.6 1.9-9.4 2.9-14.4 2.9-13.1 0-21.6-5.1-25.5-15.2-7.6 9.7-18.2 14.5-31.9 14.5-9.8 0-17.8-2.7-24.1-8.2s-9.5-12.9-9.5-22.3c0-10.4 4-18.4 12.1-24.1s19.3-8.6 33.5-8.5c6.2 0 12.3.4 18.4 1.4v-3.9c.1-5.6-1.9-9.9-5.9-13s-9.4-4.6-16.3-4.6c-9 0-17.7 3.2-25.9 9.7l-11.6-17.4c11.5-9.5 25.2-14.3 41.1-14.3 13.7 0 24.5 3.5 32.5 10.4s11.9 17.1 11.8 30.5l-.4 33.9c0 7.9 2.8 11.8 8.5 11.8 1.8 0 3.6-.4 5.2-1.2l2.4 17.6zm-63.7-17c5.9.1 11.6-2.4 15.4-6.8 4.1-4.5 6.4-10.5 6.8-17.9-5-1.2-10.2-1.8-15.4-1.8-15.2 0-22.8 4.6-22.8 13.7 0 4.1 1.5 7.3 4.4 9.5s6.8 3.3 11.6 3.3zm147.8 10.5c-9.2 5.8-19.7 8.7-31.7 8.7-16.6 0-29.6-4.8-39.2-14.3-9.5-9.5-14.3-22.3-14.4-38.4 0-15.8 4.7-28.5 14.2-38.1 9.5-9.5 22.5-14.3 39-14.3 11.1 0 21.9 2.9 31.5 8.5l-9.7 19.3c-6.1-3.4-13-5.3-20-5.3-9 0-16.2 2.7-21.4 8.1s-7.8 12.6-7.8 21.8c0 9.1 2.7 16.4 8 22s12.5 8.3 21.6 8.3c8.2 0 14.9-1.8 20.1-5.4l9.8 19.1zm83.8 3.5c-7.2 3.5-15.1 5.2-23.1 5.2-11.5 0-20.5-3.3-27.1-9.9s-9.9-16.4-9.9-29.2v-41.8h-17.6V92.4h17.6V65.1l25.7-3.3v30.6H915l-3.1 22.2h-26.7v39.2c0 13 5.9 19.4 17.6 19.4 3.8 0 7.5-.8 10.9-2.2l5.9 19.3zm-316.7 43.9a13.31 13.31 0 0 1 10.4 4.6c2.8 3 4.1 7 4.1 11.9s-1.4 8.9-4.1 12c-2.6 3-6.4 4.6-10.4 4.5-2.5 0-5-.7-7.1-2-2.1-1.4-3.7-3.4-4.8-5.7v7.4h-4.3v-48.2l4.7-.6v23.3c2.4-4.8 6.3-7.2 11.5-7.2zm-.9 29.2c3 .1 5.8-1.2 7.7-3.5a15 15 0 0 0 0-18.2c-1.9-2.3-4.7-3.6-7.7-3.5-3 0-5.8 1.3-7.7 3.5-2.1 2.6-3.1 5.8-3 9-.1 3.3.9 6.6 3 9.1 1.9 2.4 4.8 3.7 7.7 3.6zm46.4-29v33.4c0 4.6-1.3 8.2-3.8 10.7s-6.2 3.8-11 3.8c-4.2.1-8.3-1.1-11.7-3.5l2.1-3.4a16.88 16.88 0 0 0 9.5 2.9c6.8 0 10.2-3.5 10.3-10.4v-6.3c-2.1 3.8-5.4 5.7-10.1 5.7-3.3.2-6.5-1.2-8.8-3.6-2.1-2.4-3.2-5.9-3.2-10.5v-18.3l4.7-.6V252c0 7.4 2.8 11.1 8.3 11.1 2.6.1 5-.9 6.7-2.9 1.6-1.9 2.4-4.7 2.4-8.2v-17.1l4.6-.5zm32.7-13.8c6.1 0 10.8 1.3 14.1 3.9 5.9 5 6.6 13.8 1.6 19.7-.5.6-1 1.1-1.6 1.6-3.3 2.6-8 3.9-14.1 3.9-1.9 0-4-.1-6.3-.2v17.4H670v-45.7c3.6-.4 7.4-.6 11.1-.6zm0 24.8c4.5 0 8-.9 10.4-2.7s3.8-4.7 3.6-7.7c.2-3-1.2-5.8-3.6-7.6s-5.9-2.6-10.4-2.6c-2.3 0-4.4.1-6.3.2v20.2l6.3.2h0zm51.9 21.1c-1.1.6-2.3.9-3.6.8-1.7.1-3.4-.5-4.6-1.6-1.1-1.2-1.8-2.9-1.8-4.5-2.4 4.1-6 6.1-10.9 6.1-2.7.1-5.4-.7-7.5-2.5-2-1.7-3-4.2-2.9-6.8-.1-2.9 1.2-5.7 3.6-7.3 2.4-1.7 5.8-2.6 10.1-2.6 2.6 0 5.2.4 7.8 1v-2.9c.1-2.2-.7-4.4-2.3-6-1.8-1.5-4-2.2-6.3-2-3.3 0-6.5 1.2-8.9 3.5l-2.2-3.1c3.2-2.9 7.4-4.5 11.7-4.4 4 0 7.1 1 9.3 3.1 2.3 2.1 3.4 5.1 3.3 9.1l-.1 13.4c0 2.7 1 4 2.9 4 .6 0 1.3-.2 1.8-.5l.6 3.2zm-19.6-2.8c2.6.1 5.1-1 6.8-3 1.9-2.3 2.9-5.2 2.9-8.1-2.4-.7-4.8-1.1-7.3-1.1-2.4-.1-4.8.4-6.9 1.6-2.6 1.8-3.3 5.5-1.4 8.1.3.4.6.7.9 1 1.4 1.1 3.2 1.6 5 1.5h0zm47.5-29.3v33.4c0 4.6-1.3 8.2-3.8 10.7-2.6 2.5-6.2 3.8-11 3.8-4.2.1-8.3-1.1-11.7-3.5l2.1-3.4a16.88 16.88 0 0 0 9.5 2.9c6.8 0 10.3-3.5 10.3-10.4v-6.3c-2.1 3.8-5.4 5.7-10.1 5.7-3.3.2-6.5-1.2-8.8-3.6-2.1-2.4-3.2-5.9-3.2-10.5v-18.3l4.7-.6V252c0 7.4 2.8 11.1 8.3 11.1 2.6.1 5-.9 6.7-2.9 1.6-1.9 2.4-4.7 2.4-8.2v-17.1l4.6-.5zm28.6 9.8h15.4v17.7c-4.1 3.6-9.4 5.4-15.8 5.4-6.7 0-12.1-2.1-16.3-6.5-4.2-4.3-6.2-10-6.2-17 0-6.9 2-12.6 6.1-16.9s9.4-6.5 16-6.4c6.7 0 12.1 2.2 16.1 6.6l-2.9 3c-3.4-3.5-8.1-5.4-13-5.3-5.3 0-9.5 1.8-12.6 5.4s-4.7 8.2-4.8 13.7c-.2 5 1.5 10 4.8 13.8 3.2 3.6 7.5 5.3 12.9 5.3 3.9 0 7.6-1 11-2.9v-11.8h-11.5l.8-4.1zm35.6-10.1c1.5 0 3 .3 4.5.8l-1.4 4.3c-1.1-.3-2.3-.5-3.5-.6-2.6-.1-5.2 1.1-6.6 3.3-1.5 2.2-2.2 5.2-2.2 9v15.9h-4.7v-31.9l4.3-.6v6.6c1.8-4.5 5-6.8 9.6-6.8zm31.4 14.8c0 .9 0 1.7-.2 2.6h-23.7c0 3.2 1.2 6.2 3.3 8.5 2.2 2.2 5.2 3.3 8.3 3.2a14.83 14.83 0 0 0 9.7-3.3l1.9 3.5a18.35 18.35 0 0 1-11.7 3.9c-5 0-8.9-1.5-11.8-4.5s-4.3-7-4.3-12.1c0-5 1.3-9 4-12s6.6-4.7 10.7-4.6c3.8-.2 7.5 1.3 10.1 4.1 2.5 3 3.8 6.8 3.7 10.7zm-13.8-10.8c-2.5-.1-4.9.9-6.7 2.6-1.8 2-3 4.5-3.2 7.2H852c0-2.6-.9-5.2-2.6-7.2-1.8-1.8-4.3-2.8-6.7-2.6h0zm44.8 10.8c0 .9-.1 1.7-.2 2.6h-23.7c0 3.2 1.2 6.2 3.3 8.5 2.2 2.2 5.2 3.3 8.3 3.2a14.83 14.83 0 0 0 9.7-3.3l1.9 3.5a18.35 18.35 0 0 1-11.7 3.9c-5 0-8.9-1.5-11.8-4.5s-4.3-7-4.3-12.1c0-5 1.3-9 4-12s6.6-4.7 10.7-4.6c3.8-.2 7.4 1.4 10 4.1 2.5 3 3.9 6.8 3.8 10.7zm-13.8-10.8c-2.5-.1-4.9.9-6.7 2.6-1.8 2-3 4.5-3.2 7.2H883c0-2.6-.9-5.2-2.6-7.2-1.8-1.8-4.2-2.7-6.7-2.6h0zm33.8-3.9c3.3-.2 6.6 1.2 8.8 3.6s3.3 5.9 3.3 10.5v18.5h-4.7v-17.4c0-3.7-.7-6.5-2.2-8.4s-3.9-3-6.4-2.8a8.72 8.72 0 0 0-6.8 2.9c-1.7 1.9-2.6 4.7-2.6 8.3v17.4h-4.7v-31.9l4.3-.6v6.6c2.1-4.4 5.8-6.7 11-6.7z"/></svg>